<?xml version="1.0" encoding="UTF-8"?>
<!DOCTYPE svg PUBLIC "-//W3C//DTD SVG 1.1//EN" "http://www.w3.org/Graphics/SVG/1.1/DTD/svg11.dtd">
<!-- Creator: CorelDRAW X7 -->
<svg xmlns="http://www.w3.org/2000/svg" xml:space="preserve" width="64.5286mm" height="7.9303mm" version="1.1" style="shape-rendering:geometricPrecision; text-rendering:geometricPrecision; image-rendering:optimizeQuality; fill-rule:evenodd; clip-rule:evenodd"
viewBox="0 0 1760 216"
 xmlns:xlink="http://www.w3.org/1999/xlink">
 <defs>
  <style type="text/css">
   <![CDATA[
    .fil1 {fill:black;fill-rule:nonzero;fill-opacity:0.501961}
    .fil0 {fill:black;fill-opacity:0.701961}
   ]]>
  </style>
 </defs>
 <g id="Layer_x0020_1">
  <metadata id="CorelCorpID_0Corel-Layer"/>
  <g id="_826242032">
   <path class="fil0" d="M0 0c57,26 106,36 151,38 19,31 42,45 69,43 -4,32 3,64 -10,96 -11,-28 -8,-48 -11,-71 -2,15 -3,30 -4,45 -6,2 -12,1 -17,-2 2,-16 3,-32 3,-49 -5,16 -10,31 -18,47 -8,0 -14,-3 -19,-9 9,-13 16,-27 21,-43 -11,15 -22,30 -36,38 -8,0 -13,-5 -17,-12 14,-10 27,-22 37,-35 -22,14 -42,26 -55,28 -10,-1 -14,-8 -17,-17 25,-7 45,-15 61,-25 -25,6 -49,12 -81,12 -9,-5 -16,-11 -19,-24 51,1 83,0 94,-4 -36,-2 -72,-5 -108,-12 -16,-10 -23,-25 -24,-44z"/>
   <path class="fil0" d="M565 0c-57,26 -106,36 -152,38 -18,31 -41,45 -68,43 3,32 -3,64 10,96 11,-28 7,-48 11,-71 1,15 3,30 4,45 6,2 12,1 17,-2 -3,-16 -3,-32 -3,-49 4,16 10,31 17,47 9,0 15,-3 20,-9 -9,-13 -16,-27 -21,-43 10,15 21,30 36,38 7,0 12,-5 17,-12 -14,-10 -27,-22 -37,-35 21,14 41,26 55,28 9,-1 14,-8 16,-17 -24,-7 -44,-15 -61,-25 25,6 50,12 82,12 9,-5 15,-11 19,-24 -51,1 -83,0 -94,-4 36,-2 72,-5 108,-12 16,-10 23,-25 24,-44z"/>
   <path class="fil0" d="M220 180c13,-22 16,-57 11,-99 2,-2 4,-3 6,-4 5,-18 15,-32 38,-39 1,-6 1,-9 7,-13 6,4 6,7 7,13 23,7 33,21 38,39 2,1 4,2 6,4 -5,42 -2,77 11,99 -16,16 -34,29 -52,36 5,-24 8,-50 7,-80 11,-6 21,-12 24,-21 1,-3 -1,-5 -4,-6 -9,7 -19,11 -31,12 0,9 0,18 2,27 -1,5 -4,8 -8,11 -4,-3 -7,-6 -8,-11 2,-9 2,-18 2,-27 -12,-1 -22,-5 -31,-12 -3,1 -5,3 -4,6 3,9 13,15 24,21 -1,30 2,56 7,80 -18,-7 -36,-20 -52,-36z"/>
  </g>
  <path class="fil1" d="M606 72l39 1 6 2 5 3 4 4 2 6c0,2 1,4 1,7l-1 23c0,2 -2,4 -4,4l-24 0 -7 1 -16 0 -1 15c0,2 -2,3 -4,3l0 -62 -1 -5 1 -2zm27 19l0 24c2,0 4,-1 6,-2l1 -7 0 -7c0,-2 -1,-5 -2,-7l-5 -1zm-6 35l30 0 -2 3c-1,2 -3,3 -5,4l-5 3 -8 1 -4 4c1,1 2,2 3,4 -2,1 -4,2 -6,2l-9 0c-3,0 -5,0 -7,-1l0 -17c2,-1 4,-2 6,-2 2,0 5,-1 7,-1zm-12 25l22 0 0 28 -1 2 -21 0 0 -1 0 0 0 -4 0 -23 0 -2 0 0zm-8 7l5 0 0 17 0 1 0 1 -5 0 0 -17 -1 -2 1 0zm63 -86l39 0c3,0 6,1 9,2l0 18c-3,0 -5,1 -8,1l-12 0c-1,2 -1,5 -2,7l0 9c3,1 5,2 8,2l11 1 1 8 0 9c-1,2 -3,2 -6,3l-13 0 -1 11 -13 1 0 10c-2,0 -4,1 -7,1l-7 0 0 -74 1 -9zm14 74l14 0 0 9c2,0 3,1 6,2l0 9 -7 0 -1 10 -3 0 0 3 -8 0 0 -12 8 0c-4,-1 -7,-3 -8,-7l-1 -14zm28 9l8 0 0 17 -7 0 -3 8 0 4c0,-1 -1,-3 -1,-5l0 -8c0,-1 0,-1 1,-1l-2 -9c2,-1 3,-3 4,-6zm-44 3l15 0c0,2 -1,5 -1,7l-9 0 0 2 9 0 1 2 0 9 -2 1 -8 0c0,-1 0,-2 -1,-3l-4 0 0 -18zm29 12c2,0 5,0 7,1l0 9c-2,0 -5,0 -7,-1l0 -9zm16 7l8 0 1 4 -4 0c-1,1 -3,2 -5,4l0 -8zm11 -105l32 0 1 1 9 0 2 1 8 3 5 7 2 8 0 4 -19 0c-3,-1 -6,-2 -8,-4 -1,-1 -3,-1 -5,-1l0 4 -27 1 2 -5 0 -10 -2 -1 0 -8zm2 26l27 0 0 10c-1,1 -2,2 -2,4l1 0 3 0 5 -7 0 -7 25 0 0 5c-1,3 -2,6 -3,9 -1,3 -3,5 -7,6l-51 0 0 -10c1,-3 2,-6 2,-10zm-2 21l53 0 -2 1 -3 1c0,0 0,1 1,1l11 6 0 8c-1,1 -2,2 -5,3 -2,0 -4,-1 -6,-2l0 -8 -1 7c0,1 0,3 1,6l8 0c1,1 2,3 2,6l0 8c-1,2 -2,4 -2,6 -2,1 -4,1 -6,2 -2,0 -4,1 -4,3 -1,2 -1,4 -2,7l-1 2c-1,0 -2,0 -4,-1l0 -24c-1,-1 -2,-2 -4,-2 -1,-2 -2,-3 -2,-5l10 0c-1,-1 -2,-2 -4,-2 -2,0 -4,-1 -6,-2l-1 -7c-1,-2 -2,-3 -4,-4 -1,1 -2,3 -2,4l0 8 -15 1c2,1 4,2 6,2l8 0 1 31c-2,1 -4,1 -7,1l-7 0 0 -9 -7 0 -1 2 4 0c1,2 2,4 2,6l0 4c0,-1 -1,-2 -2,-3l-6 0 0 -2c-2,-1 -3,-2 -3,-5l0 -32c-1,-1 -2,-3 -3,-4 2,-1 4,-2 6,-2 3,0 5,0 8,1 1,0 2,-1 3,-3l-14 0 0 -10zm32 33l7 0 0 28 -7 0 0 -28zm28 13c1,4 1,8 1,12 -1,-4 -1,-7 -1,-12zm-13 6l10 0 0 5 -10 0 0 -5zm-3 9l14 0 0 2 0 1 0 1 -14 1 0 -5zm45 -109l21 1 8 3 5 5 3 8 1 11 -1 5 -24 0 0 -12 -1 -2c-1,-1 -3,-1 -5,-2l-1 3 -2 6 1 2 0 1c1,2 3,4 5,6l14 9 11 10 0 18 -20 0 0 -6c-3,-1 -6,-2 -9,-3l-19 -13 -1 -10 -5 0 -2 -5 0 -12 2 -9c1,-2 3,-4 4,-7 2,-1 4,-3 7,-4l8 -3zm-21 44l5 0 0 9c-2,-2 -4,-5 -5,-9zm2 22l10 0 7 2c4,0 5,2 5,6l0 7 0 2 -9 0 -2 0c-2,-1 -4,-2 -7,-2 -3,-1 -5,-2 -5,-6l0 -7 1 -2zm24 0l7 0 0 9c-2,-3 -4,-6 -7,-9zm10 10l26 0 0 8c0,3 0,6 -1,9l-26 1c0,-2 0,-4 1,-7l0 -11zm-37 8l25 0 0 3c2,2 3,3 5,4l0 17 -2 0 -1 -12 -4 0 0 1c1,3 2,5 3,6l0 10 -4 1 0 -5 -7 -3 -6 -3 -5 -4 -3 -7 -1 -8zm34 1c0,2 1,3 1,5l-3 0 2 -5zm-2 8l4 6 0 -3 24 0 -1 4c-3,1 -5,2 -8,3l-16 2c-1,-1 -2,-1 -3,-2l0 -10zm0 16l27 0c0,0 1,1 1,2l-28 0 0 -2zm35 -108l40 0c2,0 5,1 8,2l0 18c-2,0 -5,1 -7,1l-13 0c-1,2 -1,5 -1,7l0 9c2,1 4,2 7,2l12 1 1 8 0 9c-2,2 -4,2 -7,3l-13 0 0 11 -13 1 0 10c-3,0 -5,1 -8,1l-7 0 0 -74 1 -9zm15 74l13 0 0 9c2,0 4,1 6,2l0 9 -7 0 0 10 -3 0 -1 3 -8 0 0 -12 8 0c-4,-1 -6,-3 -8,-7l0 -14zm28 9l7 0 0 17 -7 0 -2 8 0 4c-1,-1 -2,-3 -2,-5l0 -8c0,-1 0,-1 1,-1l-2 -9c2,-1 3,-3 5,-6zm-45 3l15 0c0,2 0,5 -1,7l-9 0 0 2 9 0 1 2 0 9 -2 1 -8 0c0,-1 0,-2 -1,-3l-4 0 0 -18zm29 12c3,0 5,0 8,1l0 9c-3,0 -5,0 -8,-1l0 -9zm16 7l9 0 0 4 -3 0c-2,1 -4,2 -5,4l-1 -8zm13 -105l26 0 1 2 -1 6 0 57 -27 0 0 -63 1 -2zm33 0l27 0 0 2 0 6 0 34 -27 0 0 -34 0 -8zm3 46l27 0 0 28c-1,1 -1,1 -2,2l-27 0 0 -3 2 0 0 -27zm-39 21l27 0 0 7c2,3 3,6 3,9l-8 -3 -12 0c-3,0 -6,-1 -9,-2l-1 -11zm37 10l29 0 -2 1 0 10c-1,3 -3,4 -5,5l-3 3c0,-1 -1,-2 -3,-3 0,3 -2,5 -3,8l-2 -8 -4 0 0 5 3 0 0 8 -6 2 0 -3c-2,0 -5,-1 -8,-1 -1,-3 -1,-6 -1,-10l0 -8 2 0 2 4 0 -3 1 -10zm-38 7l11 0 1 1c2,1 5,2 8,2l0 23c-3,-1 -5,-2 -8,-3 -1,-2 -3,-4 -5,-6l-5 -7c-1,-3 -1,-6 -2,-10zm24 1c4,0 6,3 7,7l0 14 -7 0 0 -21zm36 10l4 0c-1,2 -1,3 -2,4l-2 -4zm32 -96l20 1 9 3 5 5 3 8 1 11 -1 5 -24 0 0 -12 -1 -2c-1,-1 -3,-1 -5,-2l-1 3 -2 6 1 2 0 1c1,2 3,4 5,6l13 9 12 10 0 18 -21 0 0 -6c-2,-1 -5,-2 -8,-3l-20 -13 0 -10 -6 0 -1 -5 0 -12 2 -9c1,-2 2,-4 4,-7 2,-1 4,-3 7,-4l8 -3zm-21 44l5 0 0 9c-2,-2 -4,-5 -5,-9zm1 22l11 0 7 2c3,0 5,2 5,6l0 7 0 2 -9 0 -2 0c-2,-1 -5,-2 -7,-2 -3,-1 -5,-2 -5,-6l0 -7 0 -2zm25 0l7 0 0 9c-2,-3 -4,-6 -7,-9zm10 10l26 0 0 8c0,3 0,6 -1,9l-26 1c0,-2 0,-4 1,-7l0 -11zm-37 8l25 0 0 3c1,2 3,3 5,4l0 17 -2 0 -1 -12 -4 0 0 1c0,3 1,5 3,6l0 10 -4 1 0 -5 -7 -3 -6 -3 -5 -4 -3 -7 -1 -8zm34 1c0,2 1,3 1,5l-3 0 2 -5zm-2 8l4 6 0 -3 24 0 -1 4c-3,1 -5,2 -8,3l-16 2c-1,-1 -2,-1 -3,-2l0 -10zm0 16l27 0c0,0 1,1 1,2l-28 0 0 -2zm97 -110l20 1 7 2 6 4 4 6 2 8 0 9 -1 4 -15 0c-3,0 -6,-1 -9,-2l0 -9c-1,-2 -3,-4 -5,-5l-4 6 1 8 5 5 18 11c1,1 2,3 3,5l-38 0c-2,-1 -4,-2 -7,-3l-4 -6 -2 -7 -1 -9 1 -9 2 -7 4 -6 6 -3 7 -3zm8 55l26 0c2,1 3,2 5,3l3 7 1 15 -3 5 1 6c0,2 -1,5 -1,7l-4 5 -6 3c-2,1 -4,1 -6,1l0 -8 0 -9 6 -1 8 0 1 -3 -1 -1 -12 0c-3,0 -4,2 -4,4l0 9 1 5 -2 2 -8 0c-2,0 -4,0 -5,-2l0 -8c0,-3 0,-5 1,-8 2,0 4,-1 6,-3 0,-2 1,-4 2,-6 0,-2 -1,-4 -2,-6l-4 -4c-1,-2 -2,-3 -3,-6l0 -5 -1 -1 1 -1zm-15 4l11 1 1 8 0 1 -8 -4c-1,-2 -3,-3 -4,-6zm15 10c0,4 1,9 1,14 -1,-4 -1,-9 -1,-14zm-29 2l2 0 1 2 -1 11 2 1 1 -1 0 -7 -1 -2 9 -1 13 0 1 1 -1 5 1 7 -2 1 1 8 0 10 1 3c-2,1 -3,1 -5,1l-1 -1c-2,0 -5,-1 -7,-2l-7 -4 -5 -5 -2 -8 0 -9 -1 0 0 -8 1 -2zm69 -69l26 0 0 1 1 0 -1 4 0 21c0,3 0,6 1,9 1,-3 1,-6 3,-9l7 -24c3,-1 6,-1 9,-2l16 1 -14 42c0,3 0,6 1,9l3 8 -1 26 -5 0c-1,1 -2,2 -2,3l8 0 0 -17 3 2 2 7c1,3 2,6 3,8 2,2 3,4 4,7l-7 0 0 9 -6 0 -5 -6 -4 0 0 -7 -1 3 0 7 3 0 1 5 -5 0 -4 -7 -2 -9c-1,-2 -2,-4 -3,-7l-1 -6c0,0 0,-1 1,-1l10 0 6 -4 -18 0 -1 -2c0,-2 -1,-4 -2,-6l0 30 -1 1c-2,2 -4,3 -7,3 -2,1 -4,3 -6,6l0 -17 10 0 0 -3 -11 0 -1 -2 0 -18 -3 0 0 -3 -7 0 -1 -60 1 -2zm-1 72l8 0 0 3 -8 0 0 -3zm-2 5l10 0c1,0 1,1 2,1l0 7 -6 0c-1,2 -2,5 -2,9l0 20c-1,-1 -2,-1 -4,-2l0 -35zm6 11c2,0 5,1 7,2l0 27c-2,0 -5,-1 -7,-2l0 -27zm56 12c2,0 5,1 7,2l2 7 -9 0 0 -9zm-37 3l8 0 0 3 -6 3c-2,1 -4,2 -6,2l0 -2 4 -6zm48 -103l40 0c2,0 5,1 8,2l0 18c-2,0 -4,1 -7,1l-13 0c-1,2 -1,5 -1,7l0 9c2,1 4,2 7,2l12 1 1 8 0 9c-2,2 -4,2 -7,3l-13 0 0 11 -13 1 0 10c-2,0 -5,1 -7,1l-8 0 0 -74 1 -9zm15 74l13 0 0 9c2,0 4,1 6,2l0 9 -7 0 0 10 -3 0 -1 3 -7 0 0 -12 7 0c-4,-1 -6,-3 -7,-7l-1 -14zm28 9l7 0 0 17 -7 0 -2 8 0 4c-1,-1 -2,-3 -2,-5l0 -8c0,-1 1,-1 1,-1l-2 -9c2,-1 4,-3 5,-6zm-45 3l15 0c0,2 0,5 -1,7l-8 0 0 2 9 0 0 2 0 9 -2 1 -7 0c0,-1 -1,-2 -2,-3l-4 0 0 -18zm29 12c3,0 5,0 8,1l0 9c-3,0 -5,0 -8,-1l0 -9zm16 7l9 0 0 4 -3 0c-2,1 -4,2 -5,4l-1 -8zm12 -105l57 0c1,4 2,9 2,13l-1 8 -15 1 0 30c0,1 0,1 -1,2 -2,0 -5,-1 -7,-2l-3 2 -14 0 -2 -1 0 -31 -16 -1 0 -21zm18 55l27 0 0 1 0 9 -9 2 -4 0 0 4 9 2 -3 6c3,0 5,2 5,5l0 8 -2 0c-1,2 -2,4 -2,7l0 3 -7 0 -16 2c-2,-2 -3,-4 -3,-7l0 -19c0,-3 1,-6 1,-8l2 -9 9 0 1 8c-2,2 -3,4 -3,7l0 9c1,2 4,2 6,2 1,3 2,5 2,8l4 1 0 -11 -4 0c-2,-1 -4,-2 -4,-5l-1 -9c1,-2 2,-5 2,-7l0 -6 -10 0 0 -3zm23 46l4 0 0 8 -1 2 -3 0 0 -10zm47 -103l14 0c3,0 6,1 10,2 3,2 6,3 9,6 2,2 4,4 5,8l2 10 1 13 -1 8 -26 0 0 -19 -2 -9 -1 -1c-2,0 -4,1 -5,1l-1 7 0 50 0 2 0 13c-1,3 -2,5 -5,8l5 0 0 6 -3 0 -6 1 0 -5c1,-2 2,-4 3,-7 -1,0 -2,-1 -3,-1 0,2 -2,3 -4,4 -1,-4 -1,-8 -1,-13l0 -30 -13 0 0 -23c0,-3 0,-7 1,-12 1,-3 3,-6 5,-9 2,-2 4,-4 7,-6l9 -4zm-25 59l12 0 1 6 0 32 -10 0 -1 -3c-1,-3 -1,-6 -2,-10l0 -25zm52 3l14 1 -1 9c-1,1 -3,2 -6,3 -1,0 -2,0 -3,0l8 0 0 2 -1 13 -2 -2 -7 0 -8 0c2,1 4,2 6,2l6 0 0 3c0,2 0,3 -1,5l-5 4c0,2 -1,3 -3,5l-3 1 0 -9c-1,0 -1,1 -2,2 0,2 -1,4 -2,7l-8 0c-1,-3 -1,-5 -1,-8l0 -16 0 -5 0 4c0,2 1,4 2,7 2,-1 4,-1 5,-2l2 -5 -1 -2 4 -1 4 1 1 -1 2 0c-1,-1 -2,-2 -3,-4l0 -8 3 -6zm-13 3l8 0 0 14 -8 0 0 -14zm-34 34l7 0 1 7 -5 -3c-1,-1 -2,-3 -3,-4zm11 0l5 0 0 5c-3,-1 -4,-3 -5,-5zm58 -97l27 0 0 33 1 3c2,0 4,0 6,-1l0 -32 -1 -1 1 -2 24 0 3 1 0 78 -2 0c-3,1 -5,2 -7,5l-8 1c-1,-1 -2,-1 -2,-2l0 -15 -8 -1 0 -7 -4 0 -3 0 0 8 -28 0 0 -66 1 -2zm-1 72l27 0 0 20 -3 0 -3 -4 0 3c-2,0 -4,2 -6,4l0 10c-2,1 -3,3 -5,5l-8 0 -2 -1c0,-3 0,-6 0,-10l0 -7 0 -2 11 0 0 -4 -11 0 0 -14zm34 0l8 0 0 13 -8 0 0 -13zm2 16l7 0 0 20 0 2 -7 0 -1 -2 1 -5 0 -15zm8 0c2,1 4,2 7,3l7 -1 1 5 0 8c-2,1 -4,2 -7,2l-8 0 0 -17zm16 3l4 0 0 16 -1 1 -3 0 0 -17zm-43 4l4 0 0 13 -4 0 0 -13zm6 0l6 0 0 13 -6 0 0 -13zm46 -95l43 1 6 2 5 4 3 5 2 7 1 17 -3 6 -5 3 -4 2 3 1 5 3c2,1 3,3 4,5l2 4c-1,1 -1,1 -2,1l-17 0c-3,0 -6,0 -8,-1 -1,-1 -3,-3 -5,-3l-4 4 -26 -1 0 -60zm28 18l0 22 6 -2c0,-4 1,-8 1,-13 -1,-4 -3,-6 -7,-7zm-30 47l25 0c2,1 3,2 3,5l0 16 5 0 0 -2 0 5 -7 2c-1,-3 -1,-5 -1,-8l-15 0 6 3c0,2 -1,4 -2,6 -1,0 -2,1 -2,2l4 0 0 4c-1,1 -3,2 -5,3 2,1 4,1 6,2l0 -5 4 0c1,1 2,2 3,5 -2,0 -5,1 -7,1l1 7 -3 -3c-2,0 -4,-1 -6,-2l0 -5c0,-1 -1,-1 -1,-1l-6 0 0 -11c2,0 4,-1 6,-1l-5 -2c-1,-1 -2,-3 -3,-5l0 -16zm39 1l26 0 1 6 -5 0 0 16c0,0 1,-1 1,-2l0 -5c2,0 3,1 5,1l0 12 0 3 -7 -1 -12 0c0,-3 -1,-5 -3,-7l0 17 -3 0 0 -3c-1,-3 -3,-5 -7,-6l0 -9 2 -1c1,-3 1,-6 2,-10l0 -11zm-22 23l7 0 0 8 -7 0 0 -8zm8 3l7 0 0 6 -7 0 0 -6zm22 8l9 0c2,0 5,0 8,1l-5 5 -6 2c-2,1 -4,2 -5,4l-1 5c0,0 -1,0 -1,-1l0 -9 1 -7zm-22 1l4 0 0 5 -4 0 0 -5zm7 0l7 0 0 7 -7 0 0 -7zm-12 6l4 0 0 5 -4 0 0 -5zm71 -109l20 2 7 3 6 5 4 7 2 17 0 30 -11 0c-1,0 -1,0 -1,-1 -3,-1 -6,-1 -9,-2l-6 0 0 -36c-1,-2 -2,-4 -3,-7 -3,1 -4,3 -4,6l0 37 -17 0 0 -3 -11 0 0 -28 1 -9c1,-2 2,-5 3,-8l5 -5c2,-2 4,-3 6,-5l8 -3zm-25 62l11 0c0,2 -1,3 -2,4 -2,1 -4,2 -6,2 -2,-1 -3,-3 -3,-6zm9 5l19 0 0 3 -19 0 0 -3zm26 0l15 0 0 3 -15 0 0 -3zm-34 5l27 0 0 4 2 9c1,2 3,4 4,6l0 14 -7 0c-1,1 -1,2 -2,3 -1,0 -2,-1 -3,-2l0 -5 -2 -3 0 -9 2 0 2 -3 -5 0c-1,3 -1,6 -1,9l-10 1 -7 -14 0 -10zm35 0l25 0c1,2 2,4 2,6 1,2 2,3 2,5l-1 8 -3 5c-2,1 -5,1 -7,2l-14 0 0 2c0,2 -1,4 -2,7 -1,-2 -2,-4 -2,-6l0 -9c0,-2 1,-4 2,-6 -1,-1 -2,-3 -2,-6l0 -8zm-30 28l9 0c1,2 2,5 2,8l-6 -3 -5 -5zm36 1l10 0c3,0 5,0 7,1 -2,1 -6,1 -9,1l-8 0 0 -2zm0 4l3 0 0 7 -3 0 0 -7zm5 0l5 0c0,2 -1,4 -2,6l-3 1 0 -7zm46 -105l20 2 8 3 5 5 4 7 2 17 0 30 -11 0c0,0 -1,0 -1,-1 -3,-1 -5,-1 -8,-2l-7 0 0 -36c0,-2 -1,-4 -3,-7 -2,1 -4,3 -4,6l0 37 -16 0 0 -3 -12 0 0 -28 2 -9c0,-2 1,-5 3,-8l4 -5c2,-2 4,-3 6,-5l8 -3zm-25 62l11 0c0,2 -1,3 -2,4 -2,1 -4,2 -6,2 -2,-1 -3,-3 -3,-6zm10 5l18 0 0 3 -18 0 0 -3zm25 0l15 0 0 3 -15 0 0 -3zm-34 5l28 0 0 4 1 9c2,2 3,4 4,6l0 14 -7 0c0,1 -1,2 -1,3 -2,0 -3,-1 -4,-2l0 -5 -2 -3 0 -9 3 0 1 -3 -5 0c0,3 0,6 0,9l-11 1 -7 -14 0 -10zm35 0l25 0c1,2 2,4 2,6 1,2 2,3 2,5l-1 8 -3 5c-2,1 -4,1 -7,2l-14 0 0 2c0,2 -1,4 -2,7 -1,-2 -2,-4 -2,-6l0 -9c0,-2 1,-4 2,-6 -1,-1 -2,-3 -2,-6l0 -8zm-30 28l10 0c0,2 1,5 1,8l-6 -3 -5 -5zm36 1l11 0c2,0 4,0 7,1 -3,1 -6,1 -10,1l-8 0 0 -2zm0 4l3 0 0 7 -3 0 0 -7zm5 0l5 0c0,2 -1,4 -1,6l-4 1 0 -7zm26 -103l26 0 0 1 0 0 0 4 0 21c0,3 0,6 1,9 1,-3 1,-6 2,-9l8 -24c2,-1 5,-1 9,-2l16 1 -14 42c0,3 0,6 1,9l3 8 -1 26 -5 0c-1,1 -2,2 -2,3l8 0 0 -17 2 2 3 7c1,3 2,6 3,8 2,2 3,4 3,7l-6 0 0 9 -6 0 -5 -6 -4 0 0 -7 -1 3 0 7 3 0 1 5 -5 0 -4 -7 -2 -9c-1,-2 -2,-4 -3,-7l-2 -6c0,0 1,-1 2,-1l10 0 6 -4 -18 0 -1 -2c0,-2 -1,-4 -2,-6l0 30 -1 1c-2,2 -4,3 -8,3 -2,1 -3,3 -5,6l0 -17 10 0 0 -3 -11 0 -1 -2 0 -18 -3 0 0 -3 -7 0 -1 -60 1 -2zm-1 72l8 0 0 3 -8 0 0 -3zm-2 5l10 0c1,0 1,1 2,1l0 7 -6 0c-1,2 -2,5 -2,9l0 20c-1,-1 -2,-1 -4,-2l0 -35zm6 11c2,0 5,1 7,2l0 27c-2,0 -5,-1 -7,-2l0 -27zm56 12c2,0 4,1 7,2l2 7 -9 0 0 -9zm-37 3l7 0 0 3 -6 3c-1,1 -3,2 -6,2l0 -2 5 -6z"/>
 </g>
</svg>
